<svg width="12" height="13" viewBox="0 0 12 13" fill="none" xmlns="http://www.w3.org/2000/svg">
<path d="M0.553652 11.8803C0.910569 12.2441 1.53099 12.2312 1.87736 11.8863L5.95516 7.80019L10.0383 11.8833C10.3907 12.2358 10.9967 12.2426 11.3536 11.8788C11.7243 11.515 11.7174 10.909 11.3581 10.5566L7.28338 6.47196L11.3581 2.39717C11.7174 2.04327 11.7243 1.43039 11.3536 1.07498C10.9967 0.711195 10.3907 0.718059 10.0383 1.06895L5.95516 5.1506L1.87736 1.06744C1.53099 0.721073 0.910569 0.709689 0.553652 1.07196C0.191378 1.42888 0.202762 2.0493 0.549132 2.39567L4.6353 6.47196L0.549132 10.5581C0.202762 10.9045 0.191378 11.5165 0.553652 11.8803Z" fill="#707079"/>
</svg>
