<svg width="176" height="57" viewBox="0 0 176 57" fill="none" xmlns="http://www.w3.org/2000/svg">
<g clip-path="url(#clip0_20_4802)">
<path d="M11.9687 4.55746L161.899 0.00515902C164.488 -0.0770362 167.012 0.825494 168.959 2.52974C170.905 4.23399 172.128 6.61239 172.381 9.18266L175.948 45.2042C176.097 46.7136 175.924 48.2376 175.44 49.6756C174.956 51.1137 174.172 52.4332 173.14 53.5474C172.108 54.6616 170.85 55.5451 169.45 56.1399C168.051 56.7346 166.54 57.0271 165.019 56.998L13.2201 54.2278C10.657 54.1617 8.1995 53.196 6.28055 51.5008C4.36161 49.8057 3.10431 47.4898 2.73014 44.9612L0 16.732C0 9.39327 4.61524 4.80047 11.9687 4.55746Z" fill="#0057FF"/>
<path d="M25.603 42H20.2592L29.9886 14.3636H36.169L45.9119 42H40.5682L33.1868 20.0312H32.9709L25.603 42ZM25.7784 31.1641H40.3523V35.1854H25.7784V31.1641ZM57.7195 50.2045C55.9652 50.2045 54.4583 49.9661 53.1989 49.4893C51.9394 49.0215 50.9273 48.3918 50.1626 47.6001C49.398 46.8085 48.8672 45.9313 48.5703 44.9688L52.9695 43.9027C53.1674 44.3075 53.4553 44.7079 53.8331 45.1037C54.2109 45.5085 54.7192 45.8414 55.358 46.1023C56.0057 46.3722 56.8198 46.5071 57.8004 46.5071C59.1858 46.5071 60.3329 46.1697 61.2415 45.495C62.1501 44.8293 62.6044 43.7318 62.6044 42.2024V38.2756H62.3615C62.1096 38.7794 61.7408 39.2966 61.255 39.8274C60.7782 40.3582 60.1439 40.8035 59.3523 41.1634C58.5696 41.5232 57.5845 41.7031 56.397 41.7031C54.8047 41.7031 53.3608 41.3298 52.0653 40.5831C50.7789 39.8274 49.7533 38.7029 48.9886 37.2095C48.233 35.7071 47.8551 33.8269 47.8551 31.5689C47.8551 29.2929 48.233 27.3722 48.9886 25.8068C49.7533 24.2325 50.7834 23.0405 52.0788 22.2308C53.3743 21.4122 54.8182 21.0028 56.4105 21.0028C57.625 21.0028 58.6236 21.2098 59.4062 21.6236C60.1979 22.0284 60.8277 22.5187 61.2955 23.0945C61.7633 23.6612 62.1186 24.1965 62.3615 24.7003H62.6314V21.2727H67.4489V42.3374C67.4489 44.1096 67.026 45.576 66.1804 46.7365C65.3348 47.897 64.1787 48.7652 62.7124 49.3409C61.246 49.9167 59.5817 50.2045 57.7195 50.2045ZM57.7599 37.8707C58.7945 37.8707 59.6761 37.6188 60.4048 37.1151C61.1335 36.6113 61.6868 35.8871 62.0646 34.9425C62.4425 33.9979 62.6314 32.8643 62.6314 31.5419C62.6314 30.2375 62.4425 29.0949 62.0646 28.1143C61.6958 27.1338 61.147 26.3736 60.4183 25.8338C59.6986 25.285 58.8125 25.0107 57.7599 25.0107C56.6714 25.0107 55.7628 25.294 55.0341 25.8608C54.3054 26.4276 53.7566 27.2057 53.3878 28.1953C53.0189 29.1759 52.8345 30.2914 52.8345 31.5419C52.8345 32.8104 53.0189 33.9214 53.3878 34.875C53.7656 35.8196 54.3189 36.5573 55.0476 37.0881C55.7853 37.6098 56.6894 37.8707 57.7599 37.8707ZM75.4915 49.7727C74.8258 49.7727 74.2095 49.7188 73.6428 49.6108C73.085 49.5118 72.6397 49.3949 72.3068 49.2599L73.4403 45.4545C74.151 45.6615 74.7853 45.7604 75.343 45.7514C75.9008 45.7424 76.3911 45.567 76.8139 45.2251C77.2457 44.8923 77.6101 44.3345 77.907 43.5518L78.3253 42.4318L70.8089 21.2727H75.9908L80.7678 36.9261H80.9837L85.7741 21.2727H90.9695L82.6705 44.5099C82.2836 45.6075 81.7708 46.5476 81.1321 47.3303C80.4934 48.1219 79.7107 48.7247 78.7841 49.1385C77.8665 49.5613 76.7689 49.7727 75.4915 49.7727ZM99.2347 14.3636V42H94.3498V14.3636H99.2347ZM110.222 42.4183C108.909 42.4183 107.726 42.1844 106.673 41.7166C105.63 41.2398 104.802 40.5381 104.191 39.6115C103.588 38.6849 103.286 37.5424 103.286 36.1839C103.286 35.0144 103.502 34.0473 103.934 33.2827C104.366 32.518 104.955 31.9062 105.702 31.4474C106.449 30.9886 107.29 30.6423 108.225 30.4084C109.17 30.1655 110.146 29.9901 111.154 29.8821C112.368 29.7562 113.353 29.6437 114.109 29.5447C114.865 29.4368 115.413 29.2749 115.755 29.0589C116.106 28.834 116.281 28.4877 116.281 28.0199V27.9389C116.281 26.9223 115.98 26.1352 115.377 25.5774C114.775 25.0196 113.906 24.7408 112.773 24.7408C111.576 24.7408 110.627 25.0017 109.926 25.5234C109.233 26.0452 108.765 26.6615 108.522 27.3722L103.961 26.7244C104.321 25.465 104.915 24.4124 105.742 23.5668C106.57 22.7121 107.582 22.0734 108.779 21.6506C109.975 21.2188 111.298 21.0028 112.746 21.0028C113.744 21.0028 114.739 21.1198 115.728 21.3537C116.718 21.5876 117.622 21.9744 118.441 22.5142C119.259 23.045 119.916 23.7692 120.411 24.6868C120.914 25.6044 121.166 26.7514 121.166 28.1278V42H116.47V39.1527H116.308C116.012 39.7285 115.593 40.2682 115.053 40.772C114.523 41.2668 113.852 41.6671 113.043 41.973C112.242 42.2699 111.302 42.4183 110.222 42.4183ZM111.491 38.8288C112.472 38.8288 113.322 38.6354 114.041 38.2486C114.761 37.8527 115.314 37.331 115.701 36.6832C116.097 36.0355 116.295 35.3293 116.295 34.5646V32.1222C116.142 32.2481 115.881 32.3651 115.512 32.473C115.152 32.581 114.748 32.6754 114.298 32.7564C113.848 32.8374 113.403 32.9093 112.962 32.9723C112.521 33.0353 112.139 33.0893 111.815 33.1342C111.086 33.2332 110.434 33.3951 109.858 33.62C109.282 33.8449 108.828 34.1598 108.495 34.5646C108.162 34.9605 107.996 35.4732 107.996 36.103C107.996 37.0026 108.324 37.6818 108.981 38.1406C109.638 38.5994 110.474 38.8288 111.491 38.8288ZM126.078 42V21.2727H130.747V24.7947H130.99C131.422 23.6072 132.137 22.6806 133.136 22.0149C134.134 21.3402 135.326 21.0028 136.712 21.0028C138.115 21.0028 139.298 21.3447 140.261 22.0284C141.232 22.7031 141.916 23.6252 142.312 24.7947H142.528C142.987 23.6432 143.76 22.7256 144.849 22.0419C145.946 21.3492 147.246 21.0028 148.749 21.0028C150.656 21.0028 152.212 21.6056 153.418 22.8111C154.623 24.0166 155.226 25.7753 155.226 28.0874V42H150.328V28.843C150.328 27.5566 149.986 26.6165 149.302 26.0227C148.618 25.42 147.782 25.1186 146.792 25.1186C145.614 25.1186 144.691 25.4875 144.026 26.2251C143.369 26.9538 143.041 27.9029 143.041 29.0724V42H138.25V28.6406C138.25 27.5701 137.926 26.7154 137.279 26.0767C136.64 25.438 135.803 25.1186 134.769 25.1186C134.067 25.1186 133.428 25.2985 132.852 25.6584C132.277 26.0092 131.818 26.5085 131.476 27.1562C131.134 27.795 130.963 28.5417 130.963 29.3963V42H126.078Z" fill="white"/>
</g>
<defs>
<clipPath id="clip0_20_4802">
<rect width="176" height="57" fill="white"/>
</clipPath>
</defs>
</svg>
