<svg width="20" height="21" viewBox="0 0 20 21" fill="none" xmlns="http://www.w3.org/2000/svg">
  <path d="M10 3.5C9.356 3.5 8.833 4.022 8.833 4.667V9.333H4.167C3.568 9.333 3.075 9.783 3.007 10.363L3 10.5C3 11.144 3.522 11.667 4.167 11.667H8.833V16.333C8.833 16.932 9.283 17.425 9.863 17.493L10 17.5C10.644 17.5 11.167 16.978 11.167 16.333V11.667H15.833C16.432 11.667 16.925 11.217 16.993 10.637L17 10.5C17 9.856 16.478 9.333 15.833 9.333H11.167V4.667C11.167 4.068 10.717 3.575 10.137 3.507L10 3.5Z" fill="#0057FF"/>
</svg>
