<svg width="20" height="21" viewBox="0 0 20 21" fill="none" xmlns="http://www.w3.org/2000/svg">
  <path d="M4.55377 15.8803C4.91069 16.2441 5.53111 16.2311 5.87748 15.8863L9.95528 11.8001L14.0384 15.8833C14.3908 16.2357 14.9968 16.2426 15.3538 15.8788C15.7244 15.515 15.7176 14.909 15.3583 14.5566L11.2835 10.4719L15.3583 6.39711C15.7176 6.04321 15.7244 5.43033 15.3538 5.07492C14.9968 4.71113 14.3908 4.718 14.0384 5.06889L9.95528 9.15054L5.87748 5.06738C5.53111 4.72101 4.91069 4.70963 4.55377 5.0719C4.1915 5.42882 4.20288 6.04924 4.54925 6.3956L8.63542 10.4719L4.54925 14.5581C4.20288 14.9044 4.1915 15.5165 4.55377 15.8803Z" fill="#707079"/>
</svg>
