<svg width="176" height="57" viewBox="0 0 176 57" fill="none" xmlns="http://www.w3.org/2000/svg">
<g clip-path="url(#clip0_72_3300)">
<path d="M11.9687 4.55746L161.899 0.00515902C164.488 -0.0770362 167.012 0.825494 168.959 2.52974C170.905 4.23399 172.128 6.61239 172.381 9.18266L175.948 45.2042C176.097 46.7136 175.924 48.2376 175.44 49.6756C174.956 51.1137 174.172 52.4332 173.14 53.5474C172.108 54.6616 170.85 55.5451 169.45 56.1399C168.051 56.7346 166.54 57.0271 165.019 56.998L13.2201 54.2278C10.657 54.1617 8.1995 53.196 6.28055 51.5008C4.36161 49.8057 3.10431 47.4898 2.73014 44.9612L0 16.732C0 9.39327 4.61524 4.80047 11.9687 4.55746Z" fill="#0057FF"/>
<path d="M28.9563 42.9978C27.0303 43.0315 25.1186 42.6731 23.3459 41.9461C21.8085 41.3271 20.4705 40.323 19.4708 39.0379C18.5207 37.7899 18.0057 36.2834 18 34.7353H23.883C23.9114 35.4221 24.1694 36.0817 24.6184 36.6157C25.0931 37.1959 25.7169 37.6464 26.4279 37.9224C27.2332 38.2253 28.092 38.3741 28.9563 38.3606C29.8534 38.3797 30.7441 38.2111 31.5673 37.8666C32.3012 37.5632 32.9313 37.066 33.385 36.4324C33.8177 35.8261 34.0431 35.1046 34.0295 34.3687C34.0402 33.6185 33.8093 32.8836 33.3685 32.2653C32.8825 31.6193 32.2142 31.1215 31.4433 30.8311C30.4849 30.4629 29.4588 30.2866 28.4275 30.3131H25.7421V26.1141H28.4275C29.3019 26.1281 30.1694 25.9624 30.9724 25.6281C31.6697 25.3365 32.2701 24.8651 32.7075 24.2656C33.1275 23.6637 33.344 22.9512 33.3272 22.2259C33.3413 21.5395 33.1552 20.8631 32.7901 20.2738C32.4228 19.7133 31.9025 19.2612 31.2863 18.9671C30.5814 18.6374 29.8056 18.4736 29.0224 18.489C28.205 18.4793 27.3946 18.634 26.6427 18.9431C25.9563 19.2105 25.3571 19.6508 24.9076 20.218C24.4669 20.7749 24.2236 21.4537 24.2135 22.1542H18.6032C18.6028 20.6322 19.1001 19.1489 20.0243 17.9153C20.9891 16.66 22.2762 15.6687 23.7591 15.0389C25.4225 14.3263 27.2273 13.9728 29.0472 14.0031C30.8467 13.9621 32.6316 14.3249 34.2609 15.0628C35.656 15.6982 36.8509 16.6799 37.7229 17.9073C38.5362 19.0867 38.9623 20.475 38.9458 21.8912C39.0079 23.3554 38.4742 24.7851 37.4585 25.8751C36.4154 26.9587 35.0295 27.6788 33.5172 27.9228V28.1459C35.3432 28.2867 37.0559 29.0559 38.3426 30.3131C39.4672 31.5153 40.0602 33.0936 39.9952 34.7114C40.0137 36.2458 39.5149 37.7445 38.574 38.9821C37.5672 40.2678 36.2281 41.2761 34.6905 41.9062C32.8796 42.6538 30.9259 43.0257 28.9563 42.9978Z" fill="white"/>
<path d="M44 43V21.0163H53.2452C55.4406 20.897 57.6219 21.4354 59.5152 22.5641C60.2453 23.0262 60.8423 23.6739 61.2465 24.4423C61.6507 25.2108 61.8479 26.073 61.8183 26.9426C61.834 27.5075 61.7261 28.0689 61.5023 28.5869C61.2784 29.1048 60.9442 29.5664 60.5233 29.9389C59.497 30.7989 58.2486 31.3446 56.9252 31.5115C58.0436 31.5738 59.136 31.8757 60.1299 32.3972C60.9979 32.8441 61.7331 33.5152 62.2609 34.3423C62.7534 35.1445 63.0092 36.0719 62.9985 37.0157C63.0253 38.1594 62.6829 39.2807 62.0232 40.2106C61.2896 41.1651 60.2952 41.8816 59.1628 42.2716C57.7188 42.7862 56.1939 43.0302 54.6631 42.9917L44 43ZM49.3029 30.0879H53.4009C53.9603 30.1034 54.5173 30.0078 55.0401 29.8065C55.4615 29.6345 55.8275 29.348 56.0974 28.9788C56.3496 28.6096 56.4788 28.1689 56.4663 27.7207C56.4811 27.397 56.4136 27.0749 56.2701 26.7851C56.1266 26.4953 55.912 26.2474 55.6466 26.0653C54.9283 25.6167 54.0872 25.4109 53.2452 25.4776H49.3029V30.0879ZM49.3029 38.638H54.6631C55.4062 38.6818 56.1399 38.4525 56.7285 37.9924C56.9771 37.7781 57.1742 37.5095 57.3048 37.2069C57.4354 36.9044 57.4962 36.5758 57.4826 36.246C57.5013 35.8837 57.4438 35.5216 57.3138 35.1835C57.1839 34.8454 56.9844 34.5389 56.7285 34.2843C56.1606 33.7793 55.4186 33.5206 54.6631 33.5642H49.3029V38.638Z" fill="white"/>
<path d="M76.5041 42.996C74.5504 43.049 72.6195 42.5719 70.9209 41.6168C69.3629 40.7019 68.1016 39.3665 67.2853 37.7677C66.398 35.9774 65.9583 34.003 66.0031 32.01C65.9592 30.0121 66.3988 28.0326 67.2853 26.2364C68.0989 24.6335 69.3606 23.2949 70.9209 22.3793C72.6377 21.4737 74.5539 21 76.5 21C78.4461 21 80.3623 21.4737 82.0791 22.3793C83.6394 23.2949 84.9011 24.6335 85.7147 26.2364C86.6012 28.0326 87.0408 30.0121 86.9969 32.01C87.0417 34.003 86.602 35.9774 85.7147 37.7677C84.8984 39.3665 83.6371 40.7019 82.0791 41.6168C80.3831 42.5709 78.455 43.0479 76.5041 42.996ZM76.5041 38.6417C77.4596 38.6716 78.3937 38.3582 79.1334 37.7596C79.8876 37.1202 80.4491 36.2879 80.7564 35.354C81.1206 34.2598 81.2989 33.1136 81.2839 31.9619C81.2995 30.8023 81.1212 29.6481 80.7564 28.5458C80.448 27.6125 79.8867 26.7804 79.1334 26.1402C78.3937 25.5416 77.4596 25.2282 76.5041 25.2581C75.5361 25.2278 74.5891 25.5407 73.8342 26.1402C73.0767 26.7768 72.5146 27.6101 72.2112 28.5458C71.8328 29.6452 71.6488 30.8008 71.6675 31.9619C71.6487 33.1152 71.8327 34.2629 72.2112 35.354C72.5134 36.2903 73.0758 37.1239 73.8342 37.7596C74.5921 38.3732 75.5491 38.6951 76.5284 38.6658L76.5041 38.6417Z" fill="white"/>
<path d="M96.5309 21V43H91V21H96.5309ZM106.327 29.6807V34.2613H94.6651V29.6807H106.327ZM110 21V43H104.502V21H110Z" fill="white"/>
<path d="M115 43V21H120.565V29.6807H122.298L128.328 21H134.92L127.237 31.8675L135 43H128.36L122.835 34.9902H120.533V43H115Z" fill="white"/>
<path d="M143.401 35.363L151.438 21H157V43H151.663V28.6039L143.626 43H138V21H143.337L143.401 35.363Z" fill="white"/>
</g>
<defs>
<clipPath id="clip0_72_3300">
<rect width="176" height="57" fill="white"/>
</clipPath>
</defs>
</svg>
